<?xml version="1.0" encoding="UTF-8" standalone="no"?>
<!-- Created with Inkscape (http://www.inkscape.org/) -->

<svg
   xmlns:dc="http://purl.org/dc/elements/1.1/"
   xmlns:cc="http://creativecommons.org/ns#"
   xmlns:rdf="http://www.w3.org/1999/02/22-rdf-syntax-ns#"
   xmlns:svg="http://www.w3.org/2000/svg"
   xmlns="http://www.w3.org/2000/svg"
   xmlns:sodipodi="http://sodipodi.sourceforge.net/DTD/sodipodi-0.dtd"
   xmlns:inkscape="http://www.inkscape.org/namespaces/inkscape"
   width="87.585915mm"
   height="63.600819mm"
   viewBox="0 0 310.34378 225.35722"
   id="svg4226"
   version="1.1"
   inkscape:version="0.91 r13725"
   sodipodi:docname="logo-square.svg">
  <defs
     id="defs4228" />
  <sodipodi:namedview
     id="base"
     pagecolor="#ffffff"
     bordercolor="#666666"
     borderopacity="1.0"
     inkscape:pageopacity="0.0"
     inkscape:pageshadow="2"
     inkscape:zoom="5.6"
     inkscape:cx="177.5395"
     inkscape:cy="94.862392"
     inkscape:document-units="px"
     inkscape:current-layer="layer1"
     showgrid="false"
     fit-margin-top="5"
     fit-margin-left="5"
     fit-margin-right="5"
     fit-margin-bottom="5"
     inkscape:window-width="2878"
     inkscape:window-height="1738"
     inkscape:window-x="7680"
     inkscape:window-y="61"
     inkscape:window-maximized="0" />
  <metadata
     id="metadata4231">
    <rdf:RDF>
      <cc:Work
         rdf:about="">
        <dc:format>image/svg+xml</dc:format>
        <dc:type
           rdf:resource="http://purl.org/dc/dcmitype/StillImage" />
        <dc:title></dc:title>
      </cc:Work>
    </rdf:RDF>
  </metadata>
  <g
     inkscape:label="Layer 1"
     inkscape:groupmode="layer"
     id="layer1"
     transform="translate(679.77013,-479.0697)">
    <g
       id="g4229"
       transform="matrix(0,3.169823,-3.1391788,0,-484.79292,500.18135)">
      <g
         id="g4471"
         transform="translate(-0.2541165,-2.875)">
        <path
           d="m 16.549,18.6195 5.357,-9.527 -5.572,-9.405 -10.928,0.125 -5.357,9.525 5.57,9.402 z"
           id="path4161"
           inkscape:connector-curvature="0"
           style="fill:#32b5e0;fill-opacity:1;stroke:#000000;stroke-width:1.5;stroke-miterlimit:4;stroke-dasharray:none;stroke-opacity:1"
           sodipodi:nodetypes="ccccccc" />
        <path
           d="m 16.770403,41.901944 5.357,-9.527 -5.572,-9.405 -10.9279993,0.125 -5.35699995,9.525 5.56999995,9.402 z"
           id="path4161-4"
           inkscape:connector-curvature="0"
           style="fill:#e06732;fill-opacity:1;stroke:#000000;stroke-width:1.5;stroke-miterlimit:4;stroke-dasharray:none;stroke-opacity:1"
           sodipodi:nodetypes="ccccccc" />
        <path
           d="m 37.030192,29.957112 5.357,-9.527 -5.572,-9.405001 -10.927999,0.125 -5.357,9.525001 5.57,9.402 z"
           id="path4161-0"
           inkscape:connector-curvature="0"
           style="fill:#bde032;fill-opacity:1;stroke:#000000;stroke-width:1.5;stroke-miterlimit:4;stroke-dasharray:none;stroke-opacity:1"
           sodipodi:nodetypes="ccccccc" />
      </g>
    </g>
    <g
       transform="matrix(2.0363757,0,0,2.0363757,-686.47817,649.288)"
       style="font-style:normal;font-weight:normal;font-size:40px;line-height:126.99999809%;font-family:sans-serif;letter-spacing:0px;word-spacing:0px;fill:#000000;fill-opacity:1;stroke:none;stroke-width:1px;stroke-linecap:butt;stroke-linejoin:miter;stroke-opacity:1"
       id="text4202">
      <path
         sodipodi:type="inkscape:offset"
         inkscape:radius="0"
         inkscape:original="M 69.494141 -1.6230469 L 69.494141 15.876953 L 74.494141 15.876953 L 74.494141 5.8769531 L 81.994141 5.8769531 L 81.994141 15.876953 L 86.994141 15.876953 L 86.994141 5.8769531 L 84.494141 5.8769531 L 84.494141 3.3769531 L 74.494141 3.3769531 L 74.494141 -1.6230469 L 69.494141 -1.6230469 z M 11.994141 3.3769531 L 11.994141 15.876953 L 16.994141 15.876953 L 16.994141 8.3769531 L 19.494141 8.3769531 L 19.494141 5.8769531 L 16.994141 5.8769531 L 16.994141 3.3769531 L 11.994141 3.3769531 z M 19.494141 5.8769531 L 26.994141 5.8769531 L 26.994141 3.3769531 L 19.494141 3.3769531 L 19.494141 5.8769531 z M 29.494141 3.3769531 L 29.494141 13.376953 L 31.994141 13.376953 L 31.994141 15.876953 L 46.994141 15.876953 L 46.994141 3.3769531 L 41.994141 3.3769531 L 41.994141 13.376953 L 34.494141 13.376953 L 34.494141 3.3769531 L 29.494141 3.3769531 z M 49.494141 3.3769531 L 49.494141 15.876953 L 54.494141 15.876953 L 54.494141 5.8769531 L 61.994141 5.8769531 L 61.994141 15.876953 L 66.994141 15.876953 L 66.994141 5.8769531 L 64.494141 5.8769531 L 64.494141 3.3769531 L 49.494141 3.3769531 z M 89.494141 3.3769531 L 89.494141 10.876953 L 91.994141 10.876953 L 91.994141 13.376953 L 101.99414 13.376953 L 101.99414 15.876953 L 91.994141 15.876953 L 91.994141 18.376953 L 104.49414 18.376953 L 104.49414 15.876953 L 106.99414 15.876953 L 106.99414 3.3769531 L 101.99414 3.3769531 L 101.99414 10.876953 L 94.494141 10.876953 L 94.494141 3.3769531 L 89.494141 3.3769531 z M 111.99414 3.3769531 L 111.99414 10.876953 L 114.49414 10.876953 L 114.49414 13.376953 L 116.99414 13.376953 L 116.99414 15.876953 L 121.99414 15.876953 L 121.99414 13.376953 L 124.49414 13.376953 L 124.49414 10.876953 L 126.99414 10.876953 L 126.99414 3.3769531 L 121.99414 3.3769531 L 121.99414 10.876953 L 116.99414 10.876953 L 116.99414 3.3769531 L 111.99414 3.3769531 z M 131.99414 3.3769531 L 131.99414 5.8769531 L 129.49414 5.8769531 L 129.49414 13.376953 L 131.99414 13.376953 L 131.99414 15.876953 L 144.49414 15.876953 L 144.49414 13.376953 L 134.49414 13.376953 L 134.49414 10.876953 L 146.99414 10.876953 L 146.99414 5.8769531 L 144.49414 5.8769531 L 144.49414 3.3769531 L 131.99414 3.3769531 z M 134.49414 5.8769531 L 141.99414 5.8769531 L 141.99414 8.3769531 L 134.49414 8.3769531 L 134.49414 5.8769531 z "
         style="font-style:normal;font-variant:normal;font-weight:normal;font-stretch:normal;font-size:20px;font-family:'Press Start 2P';-inkscape-font-specification:'Press Start 2P'"
         id="path4469"
         d="m 69.494141,-1.6230469 0,17.4999999 5,0 0,-9.9999999 7.5,0 0,9.9999999 5,0 0,-9.9999999 -2.5,0 0,-2.5 -10,0 0,-5 -5,0 z m -57.5,5 0,12.4999999 5,0 0,-7.4999999 2.5,0 0,-2.5 -2.5,0 0,-2.5 -5,0 z m 7.5,2.5 7.5,0 0,-2.5 -7.5,0 0,2.5 z m 10,-2.5 0,9.9999999 2.5,0 0,2.5 15,0 0,-12.4999999 -5,0 0,9.9999999 -7.5,0 0,-9.9999999 -5,0 z m 20,0 0,12.4999999 5,0 0,-9.9999999 7.5,0 0,9.9999999 5,0 0,-9.9999999 -2.5,0 0,-2.5 -15,0 z m 40,0 0,7.4999999 2.5,0 0,2.5 9.999999,0 0,2.5 -9.999999,0 0,2.5 12.499999,0 0,-2.5 2.5,0 0,-12.4999999 -5,0 0,7.4999999 -7.499999,0 0,-7.4999999 -5,0 z m 22.499999,0 0,7.4999999 2.5,0 0,2.5 2.5,0 0,2.5 5,0 0,-2.5 2.5,0 0,-2.5 2.5,0 0,-7.4999999 -5,0 0,7.4999999 -5,0 0,-7.4999999 -5,0 z m 20,0 0,2.5 -2.5,0 0,7.4999999 2.5,0 0,2.5 12.5,0 0,-2.5 -10,0 0,-2.5 12.5,0 0,-4.9999999 -2.5,0 0,-2.5 -12.5,0 z m 2.5,2.5 7.5,0 0,2.5 -7.5,0 0,-2.5 z" />
    </g>
  </g>
</svg>
